<svg width="1440" height="400" fill="none" xmlns="http://www.w3.org/2000/svg"><g clip-path="url(#clip0_1_2)"><mask id="a" style="mask-type:luminance" maskUnits="userSpaceOnUse" x="0" y="0" width="1440" height="400"><path d="M0 0h1440v400H0V0z" fill="#fff"/></mask><g mask="url(#a)"><path fill-rule="evenodd" clip-rule="evenodd" d="M212.911 205.032a1 1 0 0 0-.03 1.999c1.014.015 2.026.036 3.038.062a.998.998 0 0 0 1.025-.973.999.999 0 0 0-.973-1.026c-1.019-.027-2.04-.047-3.06-.062zm-9.148 2.004a1 1 0 1 0-.03-2c-1.019.016-2.038.035-3.057.059a1 1 0 0 0 .047 2c1.013-.024 2.027-.044 3.04-.059zm-12.161.378a1 1 0 1 0-.091-1.998c-1.019.047-2.036.097-3.052.149a1 1 0 0 0 .104 1.998c1.012-.053 2.025-.103 3.039-.149zm33.545-1.912a1 1 0 0 0-.128 1.996c1.011.065 2.021.136 3.028.215a1 1 0 0 0 .156-1.994 220.689 220.689 0 0 0-3.056-.217zm-45.701 2.609a1 1 0 0 0-.134-1.996c-.508.035-1.015.069-1.522.105-.519.036-1.038.072-1.556.11a1 1 0 0 0 .144 1.995c.517-.038 1.034-.074 1.551-.11l1.517-.104zm57.904-1.46a1 1 0 1 0-.251 1.984c1.005.127 2.006.263 3.004.408a1 1 0 0 0 .287-1.98c-1.01-.146-2.023-.283-3.04-.412zm-70.258 2.425a1 1 0 1 0-.179-1.992 627.78 627.78 0 0 0-3.105.287 1 1 0 1 0 .19 1.991 612.42 612.42 0 0 1 3.094-.286zm-12.363 1.246a1 1 0 1 0-.223-1.988c-1.033.116-2.064.234-3.095.355a1.001 1.001 0 0 0 .233 1.987c1.027-.121 2.056-.239 3.085-.354zm94.73-1.676a1 1 0 0 0-.404 1.959c.991.204 1.977.419 2.958.643a1 1 0 1 0 .447-1.949 141.5 141.5 0 0 0-3.001-.653zm-107.061 3.192a1 1 0 1 0-.265-1.982c-1.031.138-2.061.279-3.089.422a1 1 0 0 0 .276 1.981c1.025-.143 2.051-.283 3.078-.421zm-12.297 1.781a1 1 0 0 0-.308-1.976c-1.027.16-2.052.322-3.077.487a1.001 1.001 0 0 0 .317 1.975 515.51 515.51 0 0 1 3.068-.486zm131.266-1.943a1 1 0 0 0-.588 1.912c.965.297 1.925.605 2.877.926a1 1 0 1 0 .639-1.895c-.97-.327-1.946-.641-2.928-.943zm-143.524 3.979a1 1 0 1 0-.348-1.969c-1.023.181-2.046.364-3.068.55a1 1 0 1 0 .358 1.967c1.018-.185 2.038-.367 3.058-.548zm155.067.283a1 1 0 1 0-.802 1.832 106.634 106.634 0 0 1 2.68 1.217 1 1 0 1 0 .847-1.812c-.438-.205-.878-.408-1.32-.61a98.357 98.357 0 0 0-1.405-.627zm-167.282 2a1 1 0 0 0-.387-1.963c-1.019.201-2.038.404-3.056.61a1 1 0 0 0 .396 1.96 607.73 607.73 0 0 1 3.047-.607zm-12.17 2.517a1 1 0 1 0-.423-1.954c-1.016.22-2.03.442-3.044.667a1 1 0 1 0 .432 1.952c1.01-.224 2.022-.445 3.035-.665zm189.948.625a.999.999 0 1 0-.946 1.762c.844.453 1.681.912 2.512 1.376a1 1 0 1 0 .976-1.746 176.18 176.18 0 0 0-2.542-1.392zm-202.07 2.118a1 1 0 0 0-.458-1.947c-1.012.238-2.022.479-3.032.721a1 1 0 0 0 .468 1.945c1.006-.242 2.014-.482 3.022-.719zm-12.073 2.955a1 1 0 0 0-.492-1.939c-1.007.256-2.013.514-3.018.773a1 1 0 0 0 .5 1.937c1.002-.259 2.006-.516 3.01-.771zm224.166.739a1 1 0 1 0-1.056 1.699c.813.505 1.621 1.016 2.425 1.53a1 1 0 1 0 1.078-1.684c-.81-.519-1.626-1.034-2.447-1.545zm-236.188 2.417a1 1 0 0 0-.524-1.93c-1.002.271-2.004.545-3.005.821a1 1 0 1 0 .53 1.928c1-.275 1.998-.548 2.999-.819zm733.323 2.756a1 1 0 1 0-.023-2c-1.005.012-2.006.03-3.004.056a1 1 0 0 0 .051 1.999c.988-.025 1.98-.043 2.976-.055zm8.986-1.919a1 1 0 1 0-.057 2c.987.028 1.979.063 2.976.105a1 1 0 0 0 .084-1.999 238.13 238.13 0 0 0-3.003-.106zm-20.877 2.396a1 1 0 1 0-.139-1.995c-1.001.069-2 .146-2.996.23a1 1 0 1 0 .168 1.993c.986-.083 1.975-.159 2.967-.228zm-733.405.111a1 1 0 1 0-.553-1.922c-.998.287-1.996.576-2.992.866a1 1 0 0 0 .559 1.92c.994-.29 1.99-.578 2.986-.864zm766.273-1.863a1 1 0 1 0-.154 1.994c.986.077 1.977.159 2.975.247a1 1 0 1 0 .176-1.992 270.84 270.84 0 0 0-2.997-.249zm-44.708 2.931a1 1 0 1 0-.258-1.983c-.994.129-1.986.266-2.977.41a1 1 0 1 0 .287 1.979c.982-.142 1.964-.278 2.948-.406zm56.657-1.747a1 1 0 1 0-.237 1.986c.979.117 1.964.239 2.955.367a.999.999 0 1 0 .256-1.983c-.997-.129-1.988-.252-2.974-.37zm-520.393 1.276a1 1 0 1 0-1.137 1.646 282.18 282.18 0 0 1 2.356 1.643 1 1 0 0 0 1.152-1.635 343.681 343.681 0 0 0-2.371-1.654zm532.271.363a.999.999 0 1 0-.307 1.976l1.484.234.856.136.61.098a.999.999 0 1 0 .318-1.974l-.832-.134-.637-.101-.587-.094-.905-.141zm-80.286 1.994a1.001 1.001 0 0 0-.374-1.965c-.982.187-1.964.382-2.946.584a1 1 0 1 0 .402 1.959c.973-.2 1.946-.393 2.918-.578zm-721.738.566a1 1 0 0 0-.58-1.915c-.994.301-1.987.604-2.98.908a1 1 0 0 0 .587 1.912c.99-.303 1.981-.605 2.973-.905zm813.778-.646a1 1 0 1 0-.331 1.973c.976.163 1.951.328 2.927.494a1 1 0 1 0 .335-1.972l-2.931-.495zm-103.669 2.634a1 1 0 1 0-.481-1.941c-.968.24-1.937.487-2.908.741a1 1 0 0 0 .506 1.935 234.59 234.59 0 0 1 2.883-.735zm115.38-.616a1 1 0 1 0-.348 1.969l2.922.519a1 1 0 0 0 .351-1.969c-.974-.174-1.949-.347-2.925-.519zm-837.365 2.309a1 1 0 1 0-.605-1.906l-1.483.472-1.433.457a1 1 0 1 0 .608 1.905l.716-.229.716-.228 1.481-.471zm710.497 1.459a1 1 0 0 0-.574-1.916c-.953.286-1.909.578-2.867.876a1 1 0 0 0 .595 1.91c.951-.297 1.9-.587 2.846-.87zm138.561-1.656a1 1 0 0 0-.364 1.967c.973.179 1.945.36 2.917.541a1 1 0 0 0 .367-1.966l-2.92-.542zm-558.033.32a1 1 0 0 0-1.187 1.61c.772.569 1.543 1.14 2.312 1.712a1 1 0 0 0 1.194-1.605 579.238 579.238 0 0 0-2.319-1.717zM9.957 243.541a1 1 0 0 0-.614-1.904l-2.867.927a1 1 0 0 0 .617 1.903c.955-.31 1.91-.618 2.864-.926zm872.244-1.685a1 1 0 0 0-.377 1.964c.971.186 1.942.373 2.912.561a1 1 0 1 0 .38-1.964c-.971-.188-1.943-.375-2.915-.561zm-161.58 3.115a1 1 0 0 0-.651-1.891c-.939.323-1.881.652-2.827.987a1 1 0 0 0 .667 1.885c.941-.333 1.878-.66 2.811-.981zm173.239-.841a1 1 0 0 0-.389 1.962l2.909.579a1 1 0 1 0 .392-1.961l-2.912-.58zm-895.35 3.14a1 1 0 0 0-.625-1.9c-.953.314-1.907.63-2.861.946a.999.999 0 1 0 .629 1.898c.953-.316 1.905-.63 2.858-.944zm906.995-.798a1 1 0 1 0-.399 1.96l2.908.594a.999.999 0 1 0 .401-1.959l-2.91-.595zm-583.775.415a1 1 0 1 0-1.204 1.596l.546.413 1.754 1.322a1 1 0 1 0 1.204-1.597l-1.836-1.384-.464-.35zm387.683 2.154a1 1 0 1 0-.712-1.869 259.139 259.139 0 0 0-1.408.539l-.738.284-.667.257a1 1 0 0 0 .72 1.866l1.404-.541c.468-.18.935-.359 1.401-.536zm207.726-.17a1 1 0 1 0-.408 1.958l1.945.406.96.201a1 1 0 1 0 .41-1.957l-2.907-.608zm-930.046 2.209a1 1 0 0 0-.64-1.895c-.952.322-1.903.645-2.854.97a1 1 0 1 0 .646 1.892c.949-.323 1.898-.646 2.848-.967zm941.669.237a1.001 1.001 0 0 0-.415 1.957l2.903.617a1 1 0 1 0 .416-1.956l-2.904-.618zm-230.573 2.065a1 1 0 1 0-.726-1.863l-2.806 1.093a1.001 1.001 0 0 0 .727 1.864l2.805-1.094zm-722.475 1.612a1 1 0 0 0-.66-1.888c-.95.332-1.897.665-2.844 1a1 1 0 1 0 .666 1.886c.945-.334 1.891-.667 2.838-.998zm355.23-1.199a1 1 0 1 0-1.19 1.607c.773.572 1.547 1.143 2.324 1.712a1 1 0 0 0 1.182-1.614 492.962 492.962 0 0 1-2.316-1.705zm609.432.006a.999.999 0 1 0-.421 1.955l2.015.434.886.191a1 1 0 0 0 .422-1.955l-1.132-.244-1.77-.381zm-253.404 3.963a1 1 0 0 0-.728-1.863l-2.804 1.097a1.001 1.001 0 0 0 .729 1.863l2.803-1.097zm265.011-1.453a1 1 0 0 0-.425 1.954l2.9.631a1 1 0 0 0 .426-1.954l-2.901-.631zm-987.6 2.726a1 1 0 0 0-.685-1.879c-.944.344-1.888.69-2.83 1.037a1 1 0 0 0 .69 1.877c.94-.347 1.882-.691 2.825-1.035zm999.202-.199a.999.999 0 1 0-.426 1.954l2.9.634a1 1 0 0 0 .427-1.954l-2.901-.634zm-287.831 3.31a1 1 0 1 0-.726-1.863l-2.805 1.092a1 1 0 0 0 .725 1.864l.861-.335 1.945-.758zm-335.484-1.633a1 1 0 1 0-1.143 1.641c.79.55 1.584 1.097 2.381 1.641a1 1 0 1 0 1.126-1.653c-.791-.54-1.579-1.083-2.364-1.629zm-387.16 2.722a1 1 0 0 0-.712-1.869c-.94.359-1.879.719-2.816 1.081a1 1 0 1 0 .721 1.866c.934-.361 1.87-.72 2.808-1.078zm1022.076-1.864a1 1 0 1 0-.427 1.954l2.9.633a1 1 0 0 0 .427-1.954l-2.9-.633zm11.6 2.531a.999.999 0 1 0-.426 1.954l2.901.631a1 1 0 0 0 .425-1.954l-.891-.194-2.009-.437zm-322.265 2.6a.998.998 0 1 0-.718-1.866l-2.809 1.079a1 1 0 1 0 .716 1.868l2.811-1.081zm-722.61 1.117a1 1 0 1 0-.745-1.855c-.934.375-1.866.753-2.796 1.132a1 1 0 0 0 .755 1.852c.927-.378 1.856-.754 2.787-1.129zm1056.476-1.2a1 1 0 0 0-.422 1.955c.967.209 1.935.418 2.905.626.54.117 1.07-.227 1.19-.766.11-.54-.23-1.072-.77-1.189-.97-.208-1.936-.417-2.903-.626zm-648.555.44a1 1 0 1 0-1.064 1.694 254.045 254.045 0 0 0 2.513 1.553 1 1 0 1 0 1.042-1.707 270.455 270.455 0 0 1-2.491-1.54zm303.43 3.937a1 1 0 1 0-.705-1.871c-.939.354-1.878.706-2.817 1.058a1 1 0 0 0 .702 1.873c.94-.352 1.881-.706 2.82-1.06zm356.728-1.883a.99.99 0 0 0-1.18.769.997.997 0 0 0 .77 1.187c.96.207 1.93.413 2.9.619.54.115 1.07-.23 1.19-.77.11-.54-.23-1.071-.77-1.186l-2.91-.619zm-1079.187 3.306a1 1 0 1 0-.785-1.84c-.926.396-1.85.793-2.77 1.192a1 1 0 0 0 .795 1.835c.917-.397 1.837-.793 2.76-1.187zm1090.807-.845a1.009 1.009 0 0 0-1.19.773 1 1 0 0 0 .78 1.184c.96.203 1.93.406 2.9.609a.996.996 0 0 0 1.18-.774.993.993 0 0 0-.77-1.184c-.97-.202-1.94-.405-2.9-.608zm-661.558 1.562a.999.999 0 1 0-.982 1.742c.874.492 1.751.98 2.631 1.463a1 1 0 0 0 .962-1.753c-.873-.48-1.744-.964-2.611-1.452zm281.912 2.06a1 1 0 1 0-.687-1.878c-.941.344-1.883.687-2.826 1.029a1 1 0 0 0 .682 1.88c.944-.342 1.888-.686 2.831-1.031zm391.266-1.205a.998.998 0 0 0-1.18.778.996.996 0 0 0 .77 1.18l2.91.597a1 1 0 1 0 .4-1.959l-2.9-.596zM-80.194 277.07a1 1 0 1 0-.83-1.819c-.917.418-1.831.838-2.741 1.261a1 1 0 1 0 .842 1.814 470.5 470.5 0 0 1 2.729-1.256zm1125.054-.914a1.004 1.004 0 0 0-1.18.783.998.998 0 0 0 .78 1.178l2.92.581a.996.996 0 0 0 1.17-.785.996.996 0 0 0-.78-1.176l-2.91-.581zm-414.243 2.915a1 1 0 0 0-.663-1.887c-.946.332-1.892.663-2.839.992a1 1 0 1 0 .657 1.89c.949-.33 1.897-.662 2.845-.995zm425.883-.616a.996.996 0 0 0-1.17.791.999.999 0 0 0 .79 1.173l2.91.564c.55.105 1.07-.25 1.18-.793.1-.542-.25-1.066-.8-1.171l-2.91-.564zm-685.905.103a1 1 0 0 0-.898 1.787c.896.45 1.795.896 2.699 1.336a1 1 0 1 0 .876-1.798c-.896-.436-1.788-.878-2.677-1.325zm-461.65 3.65a1 1 0 1 0-.882-1.795c-.905.445-1.807.892-2.704 1.342a1 1 0 1 0 .896 1.788c.892-.447 1.789-.892 2.69-1.335zm1159.215-1.526a.998.998 0 0 0-1.17.799.997.997 0 0 0 .8 1.167l1.56.292 1.36.253a.996.996 0 0 0 1.16-.801.988.988 0 0 0-.8-1.166c-.97-.18-1.94-.362-2.91-.544zm-448.949 2.302a1 1 0 1 0-.633-1.897c-.951.318-1.902.634-2.854.947a1 1 0 1 0 .626 1.9c.955-.315 1.908-.631 2.861-.95zm460.619-.158a.992.992 0 0 0-1.16.807.995.995 0 0 0 .8 1.161c.98.176 1.95.35 2.93.523.54.097 1.06-.266 1.16-.809a1.009 1.009 0 0 0-.81-1.16l-1.03-.184-1.1-.195-.79-.143zm-698.434.834a1 1 0 0 0-.809 1.829c.917.406 1.837.806 2.762 1.201a1 1 0 1 0 .786-1.839c-.917-.392-1.829-.789-2.739-1.191zm226.342 3.046a1 1 0 1 0-.6-1.908c-.955.3-1.911.597-2.869.893a1 1 0 0 0 .59 1.911c.961-.297 1.92-.595 2.879-.896zm483.782-1.828a1 1 0 1 0-.34 1.971c.97.167 1.95.333 2.92.498.55.092 1.07-.275 1.16-.819a1.005 1.005 0 0 0-.82-1.153c-.98-.165-1.95-.33-2.92-.497zm-1193.267 2.801a1 1 0 0 0-.942-1.765c-.443.237-.886.474-1.327.713l-.398.21-.001.001-.704.372a1 1 0 0 0 .94 1.765l.684-.361.002-.001.426-.226c.439-.237.879-.473 1.32-.708zm1204.967-.851a1.001 1.001 0 1 0-.32 1.975c.97.158 1.95.315 2.93.471a.99.99 0 0 0 1.14-.83.994.994 0 0 0-.83-1.145c-.97-.156-1.95-.313-2.92-.471zm-710.781 1.39a1 1 0 0 0-.717 1.867c.936.359 1.875.713 2.818 1.061a1 1 0 1 0 .693-1.876c-.935-.345-1.867-.696-2.794-1.052zm203.754 1.984a1 1 0 0 0-.56-1.92c-.961.28-1.924.557-2.888.832a1 1 0 0 0 .548 1.923c.968-.276 1.934-.554 2.9-.835zm518.747-1.534a.998.998 0 0 0-1.14.839.993.993 0 0 0 .84 1.139c.97.148 1.95.296 2.93.442a1 1 0 1 0 .3-1.978l-1.15-.171c-.59-.09-1.19-.18-1.78-.271zm11.73 1.722a1.004 1.004 0 0 0-1.13.85 1.01 1.01 0 0 0 .85 1.13l1.16.162.45.064 1.34.186c.55.075 1.05-.307 1.13-.854a1.006 1.006 0 0 0-.86-1.127l-2.94-.411zm-1237.292 2.379a1 1 0 0 0-1.117-1.658 33.4 33.4 0 0 0-2.108 1.531 1 1 0 1 0 1.245 1.565 31.625 31.625 0 0 1 1.98-1.438zm695.189.673a1 1 0 1 0-.514-1.933c-.966.257-1.934.512-2.903.763a1 1 0 1 0 .501 1.936c.974-.252 1.945-.508 2.916-.766zm553.863-1.458a.998.998 0 0 0-1.12.863.997.997 0 0 0 .86 1.12c.98.128 1.97.254 2.95.379a1 1 0 0 0 .25-1.984l-2.94-.378zm-734.736.229a1 1 0 0 0-.621 1.901c.952.312 1.909.618 2.869.918a1 1 0 1 0 .598-1.908 230.47 230.47 0 0 1-2.846-.911zm746.886 3.287h-.58a1.002 1.002 0 0 1-.56-1.829c.2-.172.48-.262.76-.229l.49.058.81.001c.39 0 .73.226.9.556.12.19.18.423.15.667a.994.994 0 0 1-1.1.878l-.87-.102zm-577.712.894a1 1 0 0 0-.464-1.946c-.974.232-1.95.461-2.927.687a1 1 0 0 0 .45 1.949 466.07 466.07 0 0 0 2.941-.69zm-157.731-.756a1 1 0 0 0-.526 1.93c.967.263 1.937.521 2.911.773a1 1 0 1 0 .502-1.936c-.967-.25-1.929-.506-2.887-.767zm145.948 3.391a1 1 0 0 0-.408-1.958c-.979.204-1.958.405-2.94.602a1 1 0 0 0 .394 1.961c.987-.198 1.971-.4 2.954-.605zm-674.751-1.283a1 1 0 0 0-.489 1.94c.41.103.866.187 1.371.254a1.001 1.001 0 0 0 .262-1.983 10.13 10.13 0 0 1-1.144-.211zm540.403.746a1 1 0 0 0-.431 1.953c.978.216 1.959.426 2.945.631a1 1 0 0 0 .407-1.959c-.978-.203-1.952-.411-2.921-.625zm122.497 2.825a.999.999 0 1 0-.349-1.969c-.986.175-1.974.346-2.963.513a1 1 0 1 0 .333 1.972c.995-.168 1.988-.34 2.979-.516zm-110.771-.532a.999.999 0 1 0-.338 1.971c.986.169 1.976.332 2.97.491a1 1 0 0 0 .315-1.976c-.987-.157-1.969-.319-2.947-.486zm98.847 2.451a1 1 0 1 0-.286-1.98c-.988.143-1.978.282-2.969.416a1.001 1.001 0 0 0 .269 1.982c.997-.135 1.992-.275 2.986-.418zm-87.026-.705a1 1 0 1 0-.247 1.984c.992.124 1.988.243 2.988.356a.999.999 0 1 0 .226-1.987c-.993-.113-1.982-.23-2.967-.353zm75.05 2.229a1 1 0 1 0-.219-1.988c-.995.11-1.993.215-2.992.316a1 1 0 0 0 .202 1.99 364.34 364.34 0 0 0 3.009-.318zm-63.16-1.008a1 1 0 1 0-.162 1.993c.5.041 1.002.081 1.505.119l.885.066.629.045a1 1 0 0 0 .142-1.995c-.501-.036-1.003-.072-1.505-.111a237.87 237.87 0 0 1-1.494-.117zm51.13 2.121a.999.999 0 1 0-.149-1.994c-.995.074-1.991.144-2.989.21a1 1 0 1 0 .131 1.996c1.004-.066 2.007-.137 3.007-.212zm-39.14-1.376a1 1 0 0 0-.087 1.998c1.009.044 2.017.084 3.022.118a1 1 0 0 0 .069-1.998 340.95 340.95 0 0 1-3.004-.118zm27.087 2.062a1 1 0 0 0-.078-1.999c-1 .039-2.003.073-3.007.103a1 1 0 0 0 .059 1.999c1.011-.03 2.019-.064 3.026-.103zm-15.082-1.759a1.001 1.001 0 0 0-.014 2c1.005.007 2.008.01 3.009.007a1 1 0 1 0-.004-2c-.995.003-1.992 0-2.991-.007zm798.401-76.797c-.63-.003-1.16-.003-1.58-.003h-.06c-.43 0-.86 0-1.29.002a.99.99 0 0 0-.99 1.002c0 .553.45.999 1 .998.42-.002.85-.002 1.28-.002h.06c.42 0 .95 0 1.57.003.55.003 1-.442 1-.994a.994.994 0 0 0-.99-1.006zm-10.52 2.291c.55-.055.95-.546.9-1.095-.06-.55-.55-.95-1.1-.895-.89.089-1.76.205-2.61.355a.991.991 0 0 0-.81 1.158c.09.544.61.907 1.15.812.8-.141 1.62-.25 2.47-.335zm20.46-1.937a1.004 1.004 0 0 0-1.07.928c-.03.551.38 1.029.93 1.067 1.06.075 2.16.164 3.26.273a.994.994 0 0 0 1.09-.897.997.997 0 0 0-.9-1.093c-1.12-.111-2.23-.202-3.31-.278zm13.2 1.863a1 1 0 1 0-.47 1.943c1.08.263 2.12.558 3.08.886a1 1 0 0 0 1.27-.625.998.998 0 0 0-.62-1.269c-1.04-.35-2.13-.66-3.26-.935zm-42.85 2.963a.998.998 0 0 0 .23-1.394.995.995 0 0 0-1.39-.238c-.75.528-1.44 1.135-2.08 1.83a.991.991 0 0 0 .06 1.413.996.996 0 0 0 1.41-.06 10.96 10.96 0 0 1 1.77-1.551zm54.25 4.497a1 1 0 1 0-1.93.532c.11.409.16.847.14 1.319-.02.396-.06.793-.12 1.19-.07.547.31 1.054.85 1.133a.992.992 0 0 0 1.13-.848c.07-.456.12-.915.14-1.375a6.29 6.29 0 0 0-.21-1.951zm-59.17 3.427a1.001 1.001 0 1 0-1.95-.461 27.318 27.318 0 0 0-.5 2.834 1.001 1.001 0 1 0 1.99.236c.05-.465.12-.933.21-1.405.07-.416.16-.817.25-1.204zm56.39 7.461a1.001 1.001 0 0 0-1.72-1.021 31.6 31.6 0 0 1-1.36 2.094 1 1 0 0 0 .24 1.394.995.995 0 0 0 1.39-.238c.52-.73 1-1.474 1.45-2.229zm290.59 3.749c.54-.082.92-.592.84-1.138a.998.998 0 0 0-1.14-.839c-.51.076-1.01.155-1.51.234a.994.994 0 0 0-.83 1.145c.08.545.6.917 1.14.831.5-.079 1-.157 1.5-.233zm-346.88-.231a1.002 1.002 0 0 0-1.22-.72 1.01 1.01 0 0 0-.72 1.217c.26.983.56 1.952.93 2.904.19.516.77.776 1.29.579.51-.196.77-.774.58-1.29-.34-.885-.63-1.782-.86-2.69zm336.44 2.064c.54-.108.9-.635.79-1.176a1.007 1.007 0 0 0-1.18-.786c-1 .199-1.99.404-2.99.615-.54.115-.88.646-.77 1.186.12.54.65.886 1.19.771.98-.209 1.97-.413 2.96-.61zm-11.81 2.654a.994.994 0 0 0 .72-1.212.994.994 0 0 0-1.21-.728c-.99.246-1.97.497-2.95.754a.998.998 0 1 0 .5 1.935c.98-.255 1.96-.504 2.94-.749zm-274.9.006a1 1 0 0 0-.02-1.414.995.995 0 0 0-1.41.012c-.6.608-1.21 1.202-1.82 1.78a1 1 0 0 0-.04 1.413c.38.402 1.01.419 1.42.04.62-.593 1.25-1.204 1.87-1.831zm263.2 3.174a.997.997 0 0 0 .68-1.241c-.16-.53-.71-.833-1.24-.678-.98.287-1.95.578-2.92.873a1 1 0 1 0 .58 1.914c.96-.294 1.93-.583 2.9-.868zm-11.57 3.623c.52-.174.81-.74.63-1.264a.993.993 0 0 0-1.26-.635c-.96.32-1.93.643-2.89.97a.998.998 0 0 0-.62 1.269.99.99 0 0 0 1.26.625c.96-.325 1.92-.647 2.88-.965zm-296.36-1.382a1.003 1.003 0 0 0-1.62 1.183c.59.799 1.21 1.585 1.86 2.358a1 1 0 0 0 1.41.118.99.99 0 0 0 .12-1.409c-.62-.74-1.21-1.49-1.77-2.25zm36.96 1.548a.997.997 0 0 0 .14-1.407.99.99 0 0 0-1.4-.144c-.34.277-.67.545-1 .805-.39.313-.78.622-1.17.928-.43.34-.51.968-.17 1.404.34.435.97.513 1.4.173.4-.312.8-.627 1.2-.946.32-.262.66-.534 1-.813zm247.94 3.814a1 1 0 1 0-.68-1.881c-.96.345-1.91.694-2.86 1.044-.52.191-.79.766-.6 1.284.19.519.77.784 1.29.593.95-.349 1.9-.696 2.85-1.04zm-257.56 3.241c.47-.301.6-.921.29-1.384a.996.996 0 0 0-1.38-.29c-.83.544-1.67 1.076-2.52 1.596a1 1 0 1 0 1.05 1.704c.86-.529 1.71-1.071 2.56-1.626zm246.18 1.009a.997.997 0 0 0 .58-1.292 1 1 0 0 0-1.29-.575c-.95.364-1.9.73-2.84 1.098-.52.2-.77.779-.57 1.294.2.515.78.77 1.29.57l2.83-1.095zm-265.64-1.242a1.001 1.001 0 0 0-1.41.102 1 1 0 0 0 .11 1.411c.74.645 1.51 1.28 2.29 1.903a.994.994 0 0 0 1.4-.158.989.989 0 0 0-.16-1.406c-.76-.607-1.5-1.224-2.23-1.852zm254.33 5.677a.99.99 0 0 0 .56-1.299.997.997 0 0 0-1.3-.559c-.94.376-1.88.752-2.82 1.13-.51.205-.76.787-.56 1.3.21.513.79.762 1.3.556l2.82-1.128zm-245.38.641c.49-.251.69-.854.44-1.345a1.004 1.004 0 0 0-1.35-.435c-.88.453-1.78.895-2.67 1.327a.998.998 0 0 0-.47 1.334c.24.498.84.708 1.33.468.92-.438 1.82-.888 2.72-1.349zm3.02 2.296a1.006 1.006 0 0 0-1.39.291c-.3.463-.17 1.083.29 1.384.83.54 1.67 1.069 2.51 1.587a.994.994 0 0 0 1.37-.327.998.998 0 0 0-.32-1.376c-.83-.51-1.65-1.03-2.46-1.559zm231.09 1.6c.51-.207.76-.79.55-1.302a.999.999 0 0 0-1.3-.552l-2.33.94-.49.2a.998.998 0 0 0-.55 1.302c.2.512.79.759 1.3.552l1.36-.55 1.46-.59zm-245.17 1.103c.52-.204.77-.785.57-1.298a1.005 1.005 0 0 0-1.3-.56c-.93.367-1.86.725-2.79 1.073-.52.193-.78.769-.59 1.286.19.518.77.781 1.28.588.95-.353 1.9-.716 2.83-1.089zm21.49 1.516a.995.995 0 0 0-1.35.415.995.995 0 0 0 .41 1.352c.88.465 1.75.918 2.62 1.36.5.25 1.1.053 1.35-.439.25-.493.05-1.095-.44-1.344-.86-.437-1.73-.885-2.59-1.344zm212.4 1.936a.997.997 0 0 0 .55-1.301.994.994 0 0 0-1.3-.555l-2.82 1.131a.994.994 0 0 0-.55 1.299c.2.513.78.763 1.3.558l2.82-1.132zm-245.33.545c.53-.161.82-.72.66-1.248a.994.994 0 0 0-1.24-.666c-.96.291-1.91.572-2.88.845a.989.989 0 0 0-.68 1.235c.15.532.7.84 1.23.689.97-.276 1.94-.561 2.91-.855zm-11.71 3.106a1 1 0 1 0-.45-1.949c-.97.222-1.94.437-2.92.645a.995.995 0 0 0-.77 1.186c.11.54.64.885 1.18.77.99-.21 1.98-.427 2.96-.652zm245.73.841c.51-.201.77-.781.57-1.296a1.01 1.01 0 0 0-1.3-.567c-.94.369-1.89.736-2.83 1.102a.994.994 0 0 0-.57 1.293c.2.515.78.771 1.29.572.51-.199 1.03-.397 1.54-.597.43-.169.87-.338 1.3-.507zm-190.58-1.31a1.008 1.008 0 0 0-1.33.502c-.22.504 0 1.096.51 1.322.91.412 1.82.81 2.7 1.193.51.219 1.1-.014 1.32-.52a1.005 1.005 0 0 0-.52-1.315c-.88-.38-1.78-.774-2.68-1.182zm-67.03 2.809c.55-.092.92-.607.83-1.152a1.01 1.01 0 0 0-1.16-.821c-.98.165-1.97.323-2.96.475a.996.996 0 0 0-.83 1.141c.08.545.59.92 1.14.836.99-.153 1.99-.313 2.98-.479zm-11.97 1.693c.55-.065.94-.561.88-1.11a1.008 1.008 0 0 0-1.11-.877 276 276 0 0 1-2.99.334.992.992 0 0 0-.88 1.1c.05.549.55.947 1.1.888 1-.106 2-.218 3-.335zm-12.03 1.16c.55-.043.96-.524.92-1.074a.995.995 0 0 0-1.07-.92c-1 .076-2 .149-3 .217a1 1 0 1 0 .14 1.996c1-.069 2.01-.142 3.01-.219zm270.23-.003a.992.992 0 0 0 .59-1.286.995.995 0 0 0-1.28-.588c-.48.177-.95.353-1.43.528-.47.174-.94.347-1.41.518a1 1 0 1 0 .68 1.88l.75-.273c.23-.083.45-.166.68-.249.31-.118.63-.236.95-.354l.47-.176zm-282.29.734c.56-.025.98-.492.96-1.044a1.01 1.01 0 0 0-1.05-.954c-1 .046-2 .088-3 .127a1.001 1.001 0 0 0 .08 1.999c1-.039 2.01-.082 3.01-.128zm113.89-1.871c-.52-.201-1.1.052-1.3.566a.998.998 0 0 0 .57 1.296c.46.183.92.359 1.36.53.47.182.94.363 1.42.543.51.195 1.09-.065 1.29-.582a1.01 1.01 0 0 0-.58-1.289 203.143 203.143 0 0 1-2.76-1.064zm-125.95 2.272c.55-.012.99-.469.98-1.021a.998.998 0 0 0-1.02-.978c-1.01.022-2.01.042-3.01.059a1 1 0 1 0 .04 2c1-.017 2-.037 3.01-.06zm-12.06.164c.55-.003 1-.454.99-1.006a.995.995 0 0 0-1-.994c-1.01.007-2.01.011-3.01.015a1 1 0 1 0 .01 2c1-.004 2-.008 3.01-.015zm-15.06-1.986a1 1 0 0 0-1 .998.99.99 0 0 0 .99 1.002c1 .003 2.01.005 3.02.006a1 1 0 1 0 0-2l-1.37-.002-1.64-.004zm310.01 4.696c.52-.17.81-.734.64-1.259a.999.999 0 0 0-1.26-.644c-.95.31-1.91.614-2.87.912-.53.164-.82.724-.66 1.251.17.528.73.822 1.25.659.97-.301 1.94-.607 2.9-.919zm-145.68-1.062a.996.996 0 0 0-1.26.634c-.17.524.11 1.09.63 1.264.97.319 1.93.632 2.9.937a.998.998 0 0 0 1.25-.652.994.994 0 0 0-.65-1.255c-.96-.302-1.91-.612-2.87-.928zm134.04 4.529a.99.99 0 0 0 .7-1.227.992.992 0 0 0-1.22-.703c-.97.264-1.94.522-2.91.774a.999.999 0 1 0 .5 1.936c.98-.254 1.96-.514 2.93-.78zm-122.51-1.055c-.53-.145-1.08.17-1.23.703-.14.533.17 1.082.71 1.227.97.265 1.95.524 2.93.775a1.001 1.001 0 1 0 .5-1.937c-.97-.249-1.94-.505-2.91-.768zm110.72 3.964a1 1 0 0 0 .76-1.193.993.993 0 0 0-1.19-.76c-.98.217-1.96.428-2.94.633-.54.113-.89.642-.78 1.183.12.541.65.887 1.19.775.99-.207 1.98-.42 2.96-.638zm-99.02-1.131a1.006 1.006 0 0 0-1.19.77c-.11.54.23 1.071.77 1.186.99.211 1.99.416 2.98.613a.99.99 0 0 0 1.17-.785.996.996 0 0 0-.78-1.176c-.99-.196-1.97-.398-2.95-.608zm87.11 3.465c.54-.093.91-.61.82-1.154-.1-.545-.61-.911-1.16-.818-.99.169-1.98.332-2.97.488a1 1 0 0 0 .31 1.976c1-.158 2-.322 3-.492zm-75.27-1.276a.992.992 0 0 0-1.14.833.992.992 0 0 0 .83 1.143c1 .157 2 .307 3 .45a.991.991 0 0 0 1.13-.848.997.997 0 0 0-.84-1.131c-1-.142-1.99-.291-2.98-.447zm63.25 3.019c.55-.065.94-.563.88-1.111-.07-.549-.57-.94-1.12-.874-.99.119-1.99.232-2.99.339a1 1 0 1 0 .21 1.988c1.01-.107 2.02-.221 3.02-.342zm-51.31-1.475a1.005 1.005 0 0 0-1.1.893c-.05.55.35 1.041.9 1.097 1 .103 2.01.199 3.02.288a.997.997 0 0 0 1.08-.908.992.992 0 0 0-.9-1.084c-1-.089-2-.184-3-.286zm39.22 2.615a1 1 0 1 0-.14-1.996c-1 .069-2 .131-3 .187a1 1 0 0 0 .11 1.997c1.01-.056 2.02-.119 3.03-.188zm-27.22-1.713a.99.99 0 0 0-1.04.95 1 1 0 0 0 .95 1.048c1.01.049 2.02.091 3.03.126.55.02 1.02-.412 1.04-.964a1.005 1.005 0 0 0-.97-1.034c-1-.036-2-.078-3.01-.126zm15.09 2.233a.998.998 0 0 0 .98-1.016 1.004 1.004 0 0 0-1.02-.983c-1 .017-2 .028-3.01.032a.991.991 0 0 0-.99 1.004c0 .552.45.998 1 .996 1.01-.004 2.02-.015 3.04-.033z" fill="#686DE0"/><path d="M1362 311a4 4 0 1 0 0-8 4 4 0 0 0 0 8zm-211-13a4 4 0 1 0 0-8 4 4 0 0 0 0 8zm-232-44a4 4 0 1 0 0-8 4 4 0 0 0 0 8zm-177-13a4 4 0 1 0 0-8 4 4 0 0 0 0 8zm-194 64a4 4 0 1 0 0-8 4 4 0 0 0 0 8zm-187-27a4 4 0 1 0 0-8 4 4 0 0 0 0 8zm-122-66a4 4 0 1 0 0-8 4 4 0 0 0 0 8zM68 229a4 4 0 1 0 0-8 4 4 0 0 0 0 8z" fill="#fff" stroke="#686DE0" stroke-width="2"/></g></g><defs><clipPath id="clip0_1_2"><path fill="#fff" d="M0 0H1440V400H0z"/></clipPath></defs></svg>